<svg width="24" height="25" viewBox="0 0 24 25" fill="none" xmlns="http://www.w3.org/2000/svg">
<mask id="mask0_1243_271" style="mask-type:alpha" maskUnits="userSpaceOnUse" x="0" y="0" width="24" height="25">
<rect y="0.5" width="24" height="24" fill="#D9D9D9"/>
</mask>
<g mask="url(#mask0_1243_271)">
<path d="M18.5647 20.375C16.7468 20.225 14.9994 19.7452 13.3225 18.9356C11.6455 18.1259 10.1273 17.0397 8.76768 15.6769C7.40806 14.3141 6.33178 12.8 5.53883 11.1346C4.74588 9.46925 4.26607 7.7276 4.0994 5.90966C4.06607 5.55691 4.16845 5.25045 4.40655 4.99029C4.64465 4.73012 4.94227 4.60004 5.2994 4.60004H7.9109C8.21347 4.60004 8.47373 4.69075 8.69168 4.87216C8.90963 5.05358 9.06154 5.29044 9.14743 5.58274L9.6705 7.67501C9.71025 7.8981 9.69775 8.11605 9.633 8.32886C9.56827 8.54168 9.46282 8.71475 9.31665 8.84809L7.00705 11.0962C7.37885 11.7936 7.79104 12.45 8.2436 13.0654C8.69617 13.6808 9.19206 14.2563 9.73128 14.7919C10.2639 15.3243 10.8391 15.8173 11.4571 16.2712C12.075 16.725 12.7423 17.1379 13.459 17.5096L15.8282 15.1962C15.968 15.05 16.1282 14.9526 16.309 14.9039C16.4898 14.8552 16.6917 14.8475 16.9148 14.8808L18.9167 15.3212C19.2192 15.4045 19.4586 15.5584 19.6349 15.7827C19.8112 16.0071 19.8994 16.2738 19.8994 16.5827V19.175C19.8994 19.5321 19.7651 19.8297 19.4966 20.0678C19.2281 20.3059 18.9175 20.4083 18.5647 20.375ZM6.42245 9.82696L8.30708 8.01926C8.33913 7.99361 8.35996 7.95835 8.36958 7.91349C8.37919 7.8686 8.37759 7.82694 8.36478 7.78849L7.92615 6.05386C7.91334 6.00258 7.8909 5.96412 7.85885 5.93849C7.82679 5.91284 7.78511 5.90001 7.73383 5.90001H5.57438C5.53593 5.90001 5.50388 5.91284 5.47823 5.93849C5.45258 5.96412 5.43975 5.99617 5.43975 6.03464C5.49104 6.66797 5.60289 7.2997 5.77533 7.92984C5.94778 8.55997 6.16349 9.19235 6.42245 9.82696ZM14.7724 18.1192C15.3703 18.3823 15.9954 18.582 16.6477 18.7184C17.3001 18.8549 17.9058 18.9551 18.4648 19.0192C18.5032 19.0192 18.5353 19.0064 18.5609 18.9808C18.5866 18.9551 18.5994 18.9231 18.5994 18.8846V16.7308C18.5994 16.6795 18.5866 16.6378 18.5609 16.6058C18.5353 16.5737 18.4968 16.5513 18.4455 16.5385L16.8205 16.1865C16.7821 16.1737 16.7484 16.1721 16.7196 16.1817C16.6907 16.1914 16.6603 16.2122 16.6282 16.2442L14.7724 18.1192Z" fill="#3B3B47"/>
</g>
</svg>
