<svg width="19" height="19" viewBox="0 0 19 19" fill="none" xmlns="http://www.w3.org/2000/svg">
<path d="M9.4989 0.296204L17.9224 5.09493C18.1336 5.22524 18.2992 5.38367 18.4191 5.5702C18.5389 5.75674 18.5989 5.975 18.5989 6.225V16.7923C18.5989 17.2424 18.4435 17.6229 18.1326 17.9337C17.8218 18.2446 17.4413 18.4 16.9912 18.4H2.00663C1.55649 18.4 1.17601 18.2446 0.865176 17.9337C0.554342 17.6229 0.398926 17.2424 0.398926 16.7923V6.225C0.398926 5.975 0.458867 5.75674 0.578751 5.5702C0.698617 5.38367 0.864159 5.22524 1.07538 5.09493L9.4989 0.296204ZM9.4989 10.775L17.2989 6.3L9.4989 1.825L1.6989 6.3L9.4989 10.775ZM9.4989 12.3038L1.6989 7.87303V16.7923C1.6989 16.882 1.72775 16.9558 1.78545 17.0135C1.84315 17.0712 1.91688 17.1 2.00663 17.1H16.9912C17.0809 17.1 17.1547 17.0712 17.2124 17.0135C17.2701 16.9558 17.2989 16.882 17.2989 16.7923V7.87303L9.4989 12.3038Z" fill="#3B3B47"/>
</svg>
