<svg width="20" height="20" viewBox="0 0 20 20" fill="none" xmlns="http://www.w3.org/2000/svg">
<path d="M3.75 5.25H16.25" stroke="#6C6972" stroke-width="1.5" stroke-linecap="round" stroke-linejoin="round"/>
<path d="M7.75 5.25V3.75C7.75 3.48478 7.85536 3.23043 8.04289 3.04289C8.23043 2.85536 8.48478 2.75 8.75 2.75H11.25C11.5152 2.75 11.7696 2.85536 11.9571 3.04289C12.1446 3.23043 12.25 3.48478 12.25 3.75V5.25" stroke="#6C6972" stroke-width="1.5" stroke-linecap="round" stroke-linejoin="round"/>
<path d="M14.5 7.75L14.1 15.36C14.0718 15.8711 13.8488 16.352 13.4767 16.7036C13.1046 17.0552 12.6119 17.2508 12.1 17.25H7.9C7.38809 17.2508 6.89536 17.0552 6.5233 16.7036C6.15123 16.352 5.92815 15.8711 5.9 15.36L5.5 7.75" stroke="#6C6972" stroke-width="1.5" stroke-linecap="round" stroke-linejoin="round"/>
</svg>
